# xmcd
#
# Track frame offsets:
# 150
# 19606
# 43013
# 70073
# 89301
# 117553
# 129223
# 137977
# 181005
# 208322
# 215822
#
# Disc length: 3873 seconds
#
# Revision: 1
# Processed by: cddbd v1.5.2PL0 Copyright (c) Steve Scherf et al.
# Submitted via: CedeCatalogueitor 2.6.0.6 http://personales.ya.com/cdcatalogueitor
#
DISCID=a20f1f0b
DTITLE=Hacia Dos Veranos - De Los Valles Y Volcanes
DYEAR=1900
DGENRE=
TTITLE0=24:00
TTITLE1=Preludio
TTITLE2=Sueño
TTITLE3=La última Tarde Del Apicultor
TTITLE4=Maleficio
TTITLE5=Orillas Del Aluminé
TTITLE6=Despertar
TTITLE7=De Los Valles Y Volcanes
TTITLE8=Verano
TTITLE9=
TTITLE10=
EXTD=
EXTT0=
EXTT1=
EXTT2=
EXTT3=
EXTT4=
EXTT5=
EXTT6=
EXTT7=
EXTT8=
EXTT9=
EXTT10=
PLAYORDER=
